<?xml version="1.0" encoding="iso-8859-1"?>
<!-- Generator: Adobe Illustrator 19.0.0, SVG Export Plug-In . SVG Version: 6.00 Build 0)  -->
<svg version="1.1" id="Capa_1" xmlns="http://www.w3.org/2000/svg" xmlns:xlink="http://www.w3.org/1999/xlink" x="0px" y="0px"
	 viewBox="0 0 60 60" style="enable-background:new 0 0 60 60;" xml:space="preserve">
<g>
	<path d="M35.587,33.323l-1.414-1.414l1.414-1.414l1.414,1.414L35.587,33.323z M31.344,31.908l1.414,1.414l-1.414,1.414
		l-1.414-1.414L31.344,31.908z M34.175,37.566l-1.414-1.414l1.414-1.414l1.414,1.414L34.175,37.566z M24.273,30.494l1.414,1.414
		l-1.414,1.414l-1.414-1.414L24.273,30.494z M28.515,34.738l-1.414,1.414l-1.414-1.414l1.414-1.414L28.515,34.738z M31.344,37.567
		l-1.414,1.414l-1.414-1.414l1.414-1.414L31.344,37.567z M32.76,41.809l-1.414-1.414l1.414-1.414l1.414,1.414L32.76,41.809z
		 M21.444,36.153l1.414-1.414l1.414,1.414l-1.414,1.414L21.444,36.153z M25.685,37.564l1.414,1.414l-1.414,1.414l-1.414-1.414
		L25.685,37.564z M27.102,41.806l1.414-1.414l1.414,1.414l-1.414,1.414L27.102,41.806z M31.344,46.051l-1.414-1.414l1.414-1.414
		l1.414,1.414L31.344,46.051z M27.101,47.466l-1.414-1.414l1.414-1.414l1.414,1.414L27.101,47.466z"/>
	<path d="M43.708,3.121L40.88,0.293c-0.391-0.391-1.023-0.391-1.414,0l-3.563,3.563c-2.069-2.15-4.889-3.369-7.902-3.369
		c-6.065,0-11,4.935-11,11c0,2.334,0.753,4.604,2.128,6.483c-1.341,1.828-2.128,4.082-2.128,6.517c0,0.572,0.061,1.146,0.151,1.718
		c-0.035,0.068-0.082,0.129-0.101,0.204c-0.138,0.548-0.364,0.95-0.674,1.197c-0.248,0.197-0.387,0.5-0.376,0.816
		c0.011,0.329,0.074,0.646,0.172,0.896l5.051,15.055l6.024,15C27.401,59.752,27.768,60,28.177,60s0.775-0.248,0.928-0.627
		l6.046-15.055l5.015-14.958c0.033-0.086,0.055-0.169,0.075-0.267c0.119-0.526-0.2-1.053-0.723-1.189
		c-0.272-0.071-0.609-0.214-0.889-0.601c0.241-0.916,0.372-1.86,0.372-2.816c0-2.39-0.78-4.654-2.138-6.504
		c1.381-1.881,2.138-4.155,2.138-6.496c0-0.664-0.086-1.345-0.216-2.029l4.923-4.923C44.098,4.145,44.098,3.512,43.708,3.121z
		 M35.087,7.5l1.414,1.414L35.915,9.5l-1.414-1.414L35.087,7.5z M33.087,9.5l1.414,1.414l-0.672,0.672l-1.414-1.414L33.087,9.5z
		 M37.915,7.5l-1.414-1.414l0.064-0.064L37.087,5.5l1.414,1.414L37.915,7.5z M33.274,43.627l-2.058,5.124l-1.286-1.286l-1.414,1.414
		l1.414,1.414l1.115-1.114l-1.449,3.608l-1.079-1.079l-1.416,1.413l1.414,1.414l0.63-0.63l-0.969,2.412l-2.035-5.065l0.959-0.96
		l-1.414-1.414l-0.356,0.356l-2.231-5.553l-0.11-0.328l1.283,1.283l1.414-1.414l-1.414-1.414l-1.349,1.349l-2.842-8.472l1.362-1.362
		l-1.414-1.414l-0.658,0.658l-1.287-3.838c0.044-0.051,0.087-0.104,0.128-0.157c0.026,0.034,0.06,0.057,0.087,0.09
		c0.131,0.16,0.273,0.307,0.427,0.439c0.048,0.042,0.095,0.086,0.145,0.125c0.199,0.153,0.411,0.287,0.642,0.395
		c0.039,0.018,0.082,0.03,0.121,0.046c0.203,0.086,0.418,0.154,0.644,0.206c0.071,0.016,0.143,0.033,0.216,0.046
		C20.77,29.967,21.053,30,21.357,30c1.363,0,2.435-0.494,3.143-1.425c0.701,0.92,1.758,1.41,3.099,1.421l-0.498,0.498l1.414,1.414
		l1.414-1.414l-0.764-0.764c0.65-0.234,1.204-0.61,1.62-1.155c0.532,0.698,1.267,1.151,2.176,1.333
		C33.265,29.969,33.588,30,33.929,30c0.353,0,0.685-0.036,0.997-0.101c0.101-0.021,0.188-0.063,0.285-0.091
		c0.202-0.058,0.404-0.116,0.587-0.202c0.106-0.05,0.196-0.121,0.294-0.181c0.153-0.093,0.308-0.183,0.444-0.298
		c0.096-0.081,0.176-0.18,0.263-0.272c0.09-0.095,0.192-0.175,0.273-0.282c0.291,0.378,0.623,0.655,0.96,0.858L33.274,43.627z
		 M36.952,25.426h-0.025c-0.476,0-0.885,0.335-0.979,0.801C35.694,27.47,35.091,28,33.929,28s-1.766-0.53-2.019-1.773
		c-0.095-0.466-0.504-0.801-0.979-0.801h-0.29c-0.476,0-0.885,0.335-0.979,0.801C29.408,27.47,28.805,28,27.642,28
		s-1.766-0.53-2.019-1.773c-0.095-0.466-0.504-0.801-0.979-0.801h-0.29c-0.476,0-0.886,0.335-0.98,0.801
		C23.122,27.47,22.519,28,21.357,28c-1.141,0-1.739-0.509-2.003-1.702c-0.027-0.12-0.081-0.227-0.147-0.327
		c-0.017-0.025-0.033-0.049-0.052-0.072c-0.019-0.024-0.032-0.052-0.053-0.074c-0.067-0.446-0.101-0.893-0.101-1.338
		c0-2.21,0.792-4.235,2.115-5.805c0.016-0.016,0.04-0.023,0.055-0.041c1.277-1.489,2.963-2.505,4.83-2.929v4.275
		c0,1.93,1.57,3.5,3.5,3.5s3.5-1.57,3.5-3.5v-2.975c0.337,0.227,0.66,0.477,0.965,0.747c0.008,0.007,0.015,0.015,0.023,0.023
		c0.284,0.254,0.551,0.527,0.801,0.815c1.394,1.605,2.211,3.68,2.211,5.89C37.001,24.802,36.984,25.115,36.952,25.426z
		 M37.001,11.487c0,1.771-0.527,3.497-1.501,4.965c-0.004-0.004-0.009-0.007-0.013-0.011c-0.213-0.198-0.435-0.388-0.665-0.57
		c-0.022-0.017-0.043-0.034-0.065-0.051c-0.212-0.165-0.43-0.322-0.654-0.472c-0.037-0.025-0.073-0.051-0.111-0.075
		c-0.208-0.135-0.422-0.263-0.641-0.385c-0.051-0.028-0.1-0.059-0.151-0.087c-0.26-0.14-0.526-0.272-0.8-0.391
		c-0.309-0.137-0.664-0.106-0.948,0.079c-0.281,0.184-0.451,0.498-0.451,0.836v4.662c0,0.827-0.673,1.5-1.5,1.5s-1.5-0.673-1.5-1.5
		v-5.449c0-0.282-0.119-0.552-0.329-0.741c-0.099-0.09-0.216-0.154-0.34-0.197c-0.036-0.012-0.074-0.012-0.11-0.021
		c-0.073-0.017-0.145-0.041-0.221-0.041c-0.032,0-0.065,0.002-0.099,0.005c-0.325,0.032-0.646,0.081-0.964,0.142
		c-0.137,0.026-0.27,0.061-0.405,0.091c-0.17,0.039-0.34,0.077-0.507,0.124c-0.184,0.051-0.363,0.11-0.543,0.17
		c-0.102,0.035-0.205,0.068-0.306,0.106c-0.223,0.082-0.442,0.172-0.657,0.267c-0.039,0.017-0.078,0.035-0.117,0.053
		c-1.078,0.493-2.062,1.144-2.913,1.938c-0.966-1.464-1.489-3.183-1.489-4.947c0-4.963,4.037-9,9-9c2.476,0,4.797,1.003,6.492,2.777
		l-4.199,4.2c-0.391,0.391-0.391,1.023,0,1.414l2.828,2.828C33.317,13.902,33.573,14,33.829,14s0.512-0.098,0.707-0.293l2.461-2.461
		C37,11.327,37.001,11.407,37.001,11.487z M39.915,5.5l-1.414-1.414l1.672-1.672l1.414,1.414L39.915,5.5z"/>
</g>
<g>
</g>
<g>
</g>
<g>
</g>
<g>
</g>
<g>
</g>
<g>
</g>
<g>
</g>
<g>
</g>
<g>
</g>
<g>
</g>
<g>
</g>
<g>
</g>
<g>
</g>
<g>
</g>
<g>
</g>
</svg>
